<?xml version="1.0" standalone="no"?><!DOCTYPE svg PUBLIC "-//W3C//DTD SVG 1.1//EN" "http://www.w3.org/Graphics/SVG/1.1/DTD/svg11.dtd"><svg t="1618827892685" class="icon" viewBox="0 0 1024 1024" version="1.1" xmlns="http://www.w3.org/2000/svg" p-id="3390" xmlns:xlink="http://www.w3.org/1999/xlink" width="200" height="200"><defs><style type="text/css"></style></defs><path d="M748.307692 196.923077a78.769231 78.769231 0 0 1 78.769231 78.769231v472.615384a78.769231 78.769231 0 0 1-78.769231 78.769231H275.692308a78.769231 78.769231 0 0 1-78.769231-78.769231V275.692308a78.769231 78.769231 0 0 1 78.769231-78.769231h472.615384z m0 31.507692H275.692308a47.261538 47.261538 0 0 0-47.025231 42.417231L228.430769 275.692308v472.615384a47.261538 47.261538 0 0 0 42.417231 47.025231L275.692308 795.569231h472.615384a47.261538 47.261538 0 0 0 47.025231-42.417231L795.569231 748.307692V275.692308a47.261538 47.261538 0 0 0-42.417231-47.025231L748.307692 228.430769zM157.538462 299.323077v31.507692H94.523077v362.338462h61.755077v31.507692H63.015385V299.323077H157.538462z m803.446153 0v425.353846h-93.262769v-31.507692H929.476923V330.830769H866.461538v-31.507692h94.523077z m-349.262769 119.611077l2.875077 1.732923 64.433231 48.64a15.753846 15.753846 0 0 1-16.265846 26.781538l-2.756923-1.614769-50.845539-38.439384-93.853538 145.723076a15.753846 15.753846 0 0 1-21.385846 4.962462l-2.56-1.890462-43.441231-40.290461-80.580923 114.097231a15.753846 15.753846 0 0 1-19.180308 5.356307l-2.756923-1.575384a15.753846 15.753846 0 0 1-5.395692-19.180308l1.575384-2.756923 91.017846-128.787692a15.753846 15.753846 0 0 1 20.795077-4.529231l2.756923 2.048 42.850462 39.660308 92.868923-144.147693a15.753846 15.753846 0 0 1 19.849846-5.789538zM413.538462 393.846154a19.692308 19.692308 0 1 1 0 39.384615 19.692308 19.692308 0 0 1 0-39.384615z" fill="#333333" p-id="3391"></path></svg>