<?xml version="1.0" standalone="no"?><!DOCTYPE svg PUBLIC "-//W3C//DTD SVG 1.1//EN" "http://www.w3.org/Graphics/SVG/1.1/DTD/svg11.dtd"><svg t="1618926685274" class="icon" viewBox="0 0 1024 1024" version="1.1" xmlns="http://www.w3.org/2000/svg" p-id="5275" xmlns:xlink="http://www.w3.org/1999/xlink" width="200" height="200"><defs><style type="text/css"></style></defs><path d="M917.792 229.088c-22.208-30.304-53.184-65.696-87.168-99.712s-69.408-64.96-99.712-87.168c-51.584-37.824-76.576-42.208-90.912-42.208l-496 0c-44.096 0-80 35.872-80 80l0 864c0 44.096 35.872 80 80 80l736 0c44.096 0 80-35.904 80-80l0-624c0-14.336-4.384-39.36-42.208-90.912l0 0 0 0zM785.376 174.624c30.688 30.688 54.784 58.4 72.576 81.376l-153.952 0 0-153.952c22.976 17.792 50.688 41.888 81.376 72.576l0 0 0 0zM896 944c0 8.672-7.328 16-16 16l-736 0c-8.672 0-16-7.328-16-16l0-864c0-8.672 7.328-16 16-16 0 0 495.968 0 496 0l0 224c0 17.664 14.336 32 32 32l224 0 0 624z" p-id="5276"></path><path d="M256 64l128 0 0 64-128 0 0-64z" p-id="5277"></path><path d="M384 128l128 0 0 64-128 0 0-64z" p-id="5278"></path><path d="M256 192l128 0 0 64-128 0 0-64z" p-id="5279"></path><path d="M384 256l128 0 0 64-128 0 0-64z" p-id="5280"></path><path d="M256 320l128 0 0 64-128 0 0-64z" p-id="5281"></path><path d="M384 384l128 0 0 64-128 0 0-64z" p-id="5282"></path><path d="M256 448l128 0 0 64-128 0 0-64z" p-id="5283"></path><path d="M384 512l128 0 0 64-128 0 0-64z" p-id="5284"></path><path d="M256 848c0 26.4 21.6 48 48 48l160 0c26.4 0 48-21.6 48-48l0-160c0-26.4-21.6-48-48-48l-80 0 0-64-128 0 0 272zM448 768l0 64-128 0 0-64 128 0z" p-id="5285"></path></svg>