<svg t="1600850965193" viewBox="0 0 1024 1024" version="1.1" xmlns="http://www.w3.org/2000/svg" p-id="13007" width="64" height="64">
  <path d="M160 96h192q14.016 0.992 23.008 10.016t8.992 22.496-8.992 22.496T352 160H160v192q0 14.016-8.992 23.008T128 384t-23.008-8.992T96 352V96h64z m0 832H96v-256q0-14.016 8.992-23.008T128 640t23.008 8.992T160 672v192h192q14.016 0 23.008 8.992t8.992 22.496-8.992 22.496T352 928H160zM864 96h64v256q0 14.016-8.992 23.008T896 384t-23.008-8.992T864 352V160h-192q-14.016 0-23.008-8.992T640 128.512t8.992-22.496T672 96h192z m0 832h-192q-14.016-0.992-23.008-10.016T640 895.488t8.992-22.496T672 864h192v-192q0-14.016 8.992-23.008T896 640t23.008 8.992T928 672v256h-64z" p-id="13008" fill="currentColor"></path>
</svg>