<svg xmlns="http://www.w3.org/2000/svg" xmlns:xlink="http://www.w3.org/1999/xlink" viewBox="0 0 1024 1024" id="icon-globalization">
  <path d="M895.409296 499.023454c-2.642177-87.955214-34.858926-168.56309-87.183641-232.098125-5.347798-6.442736-10.95347-12.695137-16.687054-18.814508C731.033575 183.737698 648.749524 140.242068 556.474934 129.545448c-10.824533-1.223874-21.781072-1.99647-32.862455-2.318812-1.032516-0.065492-2.061962-0.065492-3.094478-0.128937-2.768043 0-5.605671-0.194428-8.439206-0.194428-1.352811 0-2.705622 0.128937-4.061502 0.128937-3.220345 0-6.442736 0.128937-9.66308 0.194428-9.151427 0.385786-18.3663 0.967024-27.38572 1.933025-94.526887 10.115382-178.810478 54.706973-240.154615 120.884185-5.733585 6.185886-11.276834 12.500709-16.562211 19.005866-51.288107 63.21167-82.927711 142.984528-85.507466 229.973742-0.128937 3.803629-0.25685 7.670703-0.25685 11.471262 0 4.638647 0.128937 9.214872 0.323365 13.724583 2.962471 83.250052 32.53909 159.803589 80.416518 221.402529 5.218862 6.638187 10.56666 13.080923 16.109909 19.395746 60.95528 68.625984 146.142451 115.278513 242.022149 126.426411 10.180873 1.223874 20.557198 1.995447 30.995945 2.382257 4.50971 0.128937 8.891508 0.323365 13.401218 0.323365 0.775666 0.452301 1.609661 0.900509 2.448772 1.418302 0.838088-0.517793 1.741667-1.032516 2.579755-1.547239 2.318812 0 4.573155-0.065492 6.829546-0.128937 12.30628-0.385786 24.486694-1.352811 36.535101-2.837628 93.497441-11.791557 176.748517-57.282634 236.934271-124.038014 5.539156-6.185886 10.95347-12.628622 16.10684-19.266809 48.972365-61.925375 79.192643-139.312906 82.158185-223.529983 0.191358-4.50971 0.385786-9.085936 0.385786-13.724583C895.732661 506.694157 895.538233 502.827083 895.409296 499.023454zM771.372306 263.830851c-27.643594 20.039405-58.253752 36.858466-91.307565 50.068326-28.02938-62.953797-69.206198-117.208469-119.402437-158.061922C643.078361 167.047574 716.598818 206.290343 771.372306 263.830851zM523.612479 159.251004c56.382125 39.371706 102.455463 96.011704 132.803655 163.40972-41.497113 13.919011-86.150102 22.037922-132.803655 23.390733L523.612479 159.251004zM523.612479 371.310747c50.067302-1.352811 98.008174-10.244318 142.469805-25.320689 18.039865 47.035246 28.415167 98.779747 29.640064 153.034419l-172.10987 0L523.612479 371.310747zM498.354212 499.023454 332.688101 499.023454c1.158383-53.287647 11.147898-104.127546 28.610618-150.523225 42.915415 13.856589 89.050152 21.714558 137.056516 22.810518L498.355235 499.023454zM523.612479 524.219299l171.980933 0c-1.547239 49.872874-10.890025 97.493451-26.676569 141.309376-45.300742-15.724123-94.206592-24.87248-145.304364-26.290783L523.612479 524.219299zM498.354212 163.956166l0 182.161806c-44.590568-1.095961-87.507006-8.376785-127.455857-21.008476C400.023696 259.192204 444.290899 203.51923 498.354212 163.956166zM468.711078 155.061588c-51.420113 41.562605-93.431949 97.04422-121.718179 161.671123-34.667567-13.20986-66.886363-30.411637-95.817276-51.096748C307.234383 205.966978 383.270127 165.43689 468.711078 155.061588zM234.294141 284.515962c31.058366 22.552645 65.788355 41.302685 103.160521 55.54506-18.362206 49.101301-28.867468 102.712313-30.02585 158.962431L154.263409 499.023454C156.906609 417.897785 186.222285 343.409281 234.294141 284.515962zM154.392346 524.219299l153.09991 0c1.609661 51.872415 11.085476 101.488439 27.38572 147.237389-38.468127 14.948457-73.973782 34.667567-105.674784 58.316174C184.678116 672.486134 157.292396 601.544409 154.392346 524.219299zM245.375523 749.102093c29.576619-21.908986 62.696947-40.143279 98.521874-54.125735 28.867468 69.074192 73.263607 128.161938 128.036072 171.528632C382.237611 856.453053 302.596759 813.022914 245.375523 749.102093zM498.354212 855.033727c-56.125275-41.107233-101.682867-99.423407-130.741693-168.56309 40.915875-13.275351 84.926228-20.942985 130.741693-22.037922L498.354212 855.033727zM498.354212 639.174448c-48.972365 1.158383-96.011704 9.406231-139.765207 23.777543-15.268752-43.109844-24.291243-89.825818-25.838482-138.732691L498.354212 524.219299 498.354212 639.174448zM523.612479 664.432715c47.877427 1.418302 93.626377 9.986445 136.024 24.549116-30.220279 70.624501-77.57889 129.97012-136.024 170.694637L523.612479 664.432715zM557.441958 865.733417c53.611012-42.724057 97.235578-100.392478 125.908618-167.857009 34.020838 13.981433 65.530482 31.896454 93.688799 53.15871C721.046107 812.637128 644.106784 854.714456 557.441958 865.733417zM793.407158 731.833801c-30.2827-23.004947-64.241117-42.400692-100.907201-57.414641 16.819061-46.587038 26.743084-97.170087 28.352745-150.19986l148.975986 0C866.799702 602.444918 838.835813 674.227802 793.407158 731.833801zM720.980615 499.023454c-1.223874-57.349149-12.177344-111.989607-31.249725-161.80006 35.697013-14.368242 68.879764-32.796964 98.650811-54.705949 48.972365 59.219753 78.869279 134.479831 81.512479 216.506009L720.980615 499.023454z" p-id="2476"></path>
</svg>