<?xml version="1.0" standalone="no"?>
<!DOCTYPE svg PUBLIC "-//W3C//DTD SVG 1.1//EN" "http://www.w3.org/Graphics/SVG/1.1/DTD/svg11.dtd"><svg t="1618827488262" class="icon" viewBox="0 0 1024 1024" version="1.1" xmlns="http://www.w3.org/2000/svg" p-id="2140" xmlns:xlink="http://www.w3.org/1999/xlink" width="200" height="200">
  <defs>
    <style type="text/css"></style>
  </defs>
  <path d="M274.9 319.5m-21.3 0a21.3 21.3 0 1 0 42.6 0 21.3 21.3 0 1 0-42.6 0Z" fill="#263554" p-id="2141"></path>
  <path d="M274.9 512m-21.3 0a21.3 21.3 0 1 0 42.6 0 21.3 21.3 0 1 0-42.6 0Z" fill="#263554" p-id="2142"></path>
  <path d="M274.9 704.5m-21.3 0a21.3 21.3 0 1 0 42.6 0 21.3 21.3 0 1 0-42.6 0Z" fill="#263554" p-id="2143"></path>
  <path d="M797.7 319.5c0-9.9-8.1-18-18-18h-418c-9.9 0-18 8.1-18 18s8.1 18 18 18h418c9.9 0 18-8.1 18-18zM797.7 510.8c0-9.9-8.1-18-18-18h-418c-9.9 0-18 8.1-18 18s8.1 18 18 18h418c9.9 0 18-8.1 18-18zM797.7 702.2c0-9.9-8.1-18-18-18h-418c-9.9 0-18 8.1-18 18s8.1 18 18 18h418c9.9 0 18-8.1 18-18z" fill="#263554" p-id="2144"></path>
  <path d="M844.1 918.6H184.2c-42.9 0-77.9-34.9-77.9-77.9V180.9c0-42.9 34.9-77.9 77.9-77.9h659.9c42.9 0 77.9 34.9 77.9 77.9v659.9c-0.1 42.9-35 77.8-77.9 77.8zM184.2 131c-27.5 0-49.9 22.4-49.9 49.9v659.9c0 27.5 22.4 49.9 49.9 49.9h659.9c27.5 0 49.9-22.4 49.9-49.9V180.9c0-27.5-22.4-49.9-49.9-49.9H184.2z" fill="#263554" p-id="2145"></path>
</svg>