<?xml version="1.0" standalone="no"?>
<!DOCTYPE svg PUBLIC "-//W3C//DTD SVG 1.1//EN" "http://www.w3.org/Graphics/SVG/1.1/DTD/svg11.dtd"><svg t="1618827820715" class="icon" viewBox="0 0 1024 1024" version="1.1" xmlns="http://www.w3.org/2000/svg" p-id="2956" xmlns:xlink="http://www.w3.org/1999/xlink" width="200" height="200">
  <defs>
    <style type="text/css"></style>
  </defs>
  <path d="M606.4 736.8l-19.2-25.6c61.6-44.8 97.6-116 97.6-192 0-76.8-37.6-148.8-100-193.6l18.4-26.4c71.2 50.4 113.6 132.8 113.6 219.2 0.8 86.4-40.8 168-110.4 218.4z" fill="#666666" p-id="2957"></path>
  <path d="M688 844.8l-19.2-25.6c96-69.6 152.8-181.6 152.8-299.2 0-119.2-58.4-232-156-301.6l18.4-26.4c105.6 75.2 169.6 197.6 169.6 328 0 128-61.6 249.6-165.6 324.8z" fill="#666666" p-id="2958"></path>
  <path d="M772 952.8l-19.2-25.6c132-96 211.2-250.4 211.2-413.6 0-164.8-80.8-320.8-215.2-416.8l18.4-26.4c143.2 101.6 228.8 267.2 228.8 442.4 0 174.4-84 338.4-224 440zM156 710.4h-57.6c-34.4 0-61.6-28-61.6-61.6V446.4c0-34.4 28-61.6 61.6-61.6h57.6v32h-57.6c-16.8 0-29.6 13.6-29.6 29.6V648c0 16.8 13.6 29.6 29.6 29.6h57.6v32.8z" fill="#666666" p-id="2959"></path>
  <path d="M430.4 824.8h-3.2L142.4 707.2l12-29.6 278.4 115.2c14.4-1.6 26.4-13.6 26.4-28.8V324.8c0-15.2-11.2-27.2-26.4-28.8l-280 121.6-12.8-29.6 286.4-124.8h3.2c33.6 0 60.8 27.2 60.8 60.8v439.2c1.6 34.4-25.6 61.6-60 61.6z" fill="#666666" p-id="2960"></path>
  <path d="M758.4 84m-16 0a16 16 0 1 0 32 0 16 16 0 1 0-32 0Z" fill="#666666" p-id="2961"></path>
  <path d="M675.2 204.8m-16 0a16 16 0 1 0 32 0 16 16 0 1 0-32 0Z" fill="#666666" p-id="2962"></path>
  <path d="M596.8 313.6m-16 0a16 16 0 1 0 32 0 16 16 0 1 0-32 0Z" fill="#666666" p-id="2963"></path>
  <path d="M596.8 724m-16 0a16 16 0 1 0 32 0 16 16 0 1 0-32 0Z" fill="#666666" p-id="2964"></path>
  <path d="M679.2 831.2m-16 0a16 16 0 1 0 32 0 16 16 0 1 0-32 0Z" fill="#666666" p-id="2965"></path>
  <path d="M763.2 940m-16 0a16 16 0 1 0 32 0 16 16 0 1 0-32 0Z" fill="#666666" p-id="2966"></path>
</svg>