<svg t="1600849767903" viewBox="0 0 1024 1024" version="1.1" xmlns="http://www.w3.org/2000/svg" p-id="5984" width="64" height="64">
  <path d="M864 128H160c-19.2 0-32 12.8-32 32v704c0 19.2 12.8 32 32 32h704c19.2 0 32-12.8 32-32V160c0-19.2-12.8-32-32-32z m-32 704H192V192h640v640z" p-id="5985" fill="currentColor"></path>
  <path d="M320 384v288c0 19.2 12.8 32 32 32s32-12.8 32-32V352c0-19.2-12.8-32-32-32h-32c-19.2 0-32 12.8-32 32s12.8 32 32 32zM640 384v288c0 19.2 12.8 32 32 32s32-12.8 32-32V352c0-19.2-12.8-32-32-32h-32c-19.2 0-32 12.8-32 32s12.8 32 32 32z" p-id="5986" fill="currentColor"></path>
  <path d="M512 384m-32 0a32 32 0 1 0 64 0 32 32 0 1 0-64 0Z" p-id="5987" fill="currentColor"></path>
  <path d="M512 640m-32 0a32 32 0 1 0 64 0 32 32 0 1 0-64 0Z" p-id="5988" fill="currentColor"></path>
</svg>