<svg xmlns="http://www.w3.org/2000/svg" xmlns:xlink="http://www.w3.org/1999/xlink" viewBox="0 0 1024 1024" id="icon-user">
  <path d="M811.739 966.597c-0.048 0-0.095 0-0.143 0l-718.856 0c-10.326 0-18.697-8.371-18.697-18.697l0-22.468c-0.318-6.267-0.911-40.604 21.004-78.307 13.716-23.598 33.431-43.861 58.598-60.225 30.493-19.829 69.116-33.909 114.796-41.849 0.233-0.04 0.467-0.076 0.701-0.107 0.347-0.047 35.499-4.859 71.209-14.273 61.895-16.318 67.308-30.743 67.346-30.884 0.364-1.431 0.894-2.804 1.573-4.095 0.508-2.699 1.764-12.859-0.638-40.08-6.101-69.136-42.12-109.995-71.061-142.826-9.128-10.355-17.749-20.133-24.387-29.723-28.64-41.372-31.297-88.416-31.396-90.399-0.015-0.311-0.023-0.622-0.023-0.933 0-18.78 9.363-27.418 17.624-35.041l0.434-0.401c0.271-0.251 0.442-0.437 0.542-0.557 0.093-1.341-0.567-4.743-1.013-7.041-0.17-0.874-0.34-1.751-0.501-2.633-7.18-38.982-7.671-99.192-1.176-137.837 2.41-50.813 46.225-89.711 48.105-91.356 0.072-0.062 0.143-0.124 0.215-0.185 6.29-5.339 12.672-11.169 16.728-17.637 0.487-0.776 0.828-1.377 1.066-1.837-0.305-0.787-0.742-1.794-1.095-2.608-2.436-5.619-6.118-14.109-4.024-25.024 1.264-6.589 6.078-18.362 24.118-23.174 7.261-1.937 15.022-2.333 20.689-2.622l1.123-0.058c22.39-1.179 46.273-2.177 70.435-0.324 174.73 13.396 234.92 78.686 237.396 81.459 0.14 0.156 0.276 0.314 0.409 0.475 13.987 16.757 24.347 37.635 30.796 62.055 2.015 7.62 3.309 14.016 4.063 20.072 6.103 35.465 5.085 71.904 3.782 96.269-0.733 13.675-2.257 28.03-4.8 45.176-0.692 4.656 0.069 5.565 0.355 5.906 0.758 0.907 1.686 1.892 2.668 2.935 3.863 4.099 9.152 9.713 11.964 18.721 1.41 4.503 2.069 9.36 2.069 15.268 0 0.311-0.008 0.622-0.023 0.933-0.099 1.982-2.756 49.026-31.395 90.398-6.639 9.59-15.26 19.369-24.387 29.723-28.942 32.83-64.96 73.689-71.061 142.828-2.402 27.221-1.145 37.379-0.638 40.08 0.678 1.291 1.208 2.665 1.573 4.094 0.037 0.141 5.472 14.614 67.649 30.964 35.705 9.389 70.558 14.146 70.906 14.193 0.304 0.041 0.607 0.09 0.909 0.145 46.096 8.55 84.957 22.992 115.505 42.923 25.252 16.476 44.93 36.702 58.489 60.114 21.502 37.129 20.627 70.714 20.196 77.444l0 22.333c0 10.326-8.371 18.697-18.697 18.697l-176.883 0c-10.326 0-18.697-8.371-18.697-18.697 0-10.326 8.371-18.697 18.697-18.697L934.07 929.207l0-4.311c0-0.687 0.009-1.106 0.082-1.769 0.104-1.508 1.627-28.332-16.349-58.131-10.82-17.938-26.59-33.609-46.87-46.581-26.1-16.693-59.762-28.968-100.052-36.483-4.64-0.643-39.012-5.565-75.081-15.06-70.761-18.629-87.964-39.353-93.189-54.396-4.004-7.766-6.245-23.195-2.985-60.153 7.181-81.369 49.419-129.282 80.261-164.268 8.747-9.922 16.301-18.491 21.693-26.279 21.12-30.511 24.438-66.3 24.765-70.606-0.033-2.252-0.261-3.223-0.362-3.55-0.249-0.798-1.897-2.547-3.49-4.238-1.25-1.327-2.668-2.833-4.136-4.587-7.95-9.504-10.783-21.079-8.66-35.385 2.368-15.96 3.781-29.206 4.449-41.684 1.951-36.502 0.914-63.748-3.364-88.341-0.057-0.326-0.105-0.655-0.145-0.983-0.531-4.438-1.531-9.354-3.148-15.469-4.987-18.884-12.727-34.771-23.007-47.233-1.714-1.748-15.385-15.125-45.883-29.676C583.715 93.84 517.807 84.174 472.181 80.675c-21.935-1.681-44.442-0.733-65.614 0.383l-1.179 0.06c-1.766 0.09-4.736 0.242-7.558 0.526 2.448 5.841 5.453 14.632 2.296 25.136-1.185 3.94-3.003 7.792-5.723 12.129-6.732 10.733-15.924 19.236-24.055 26.145-1.597 1.442-34.223 31.356-35.351 65.738-0.029 0.87-0.118 1.737-0.267 2.594-5.972 34.304-5.569 90.78 0.898 125.894 0.14 0.765 0.289 1.526 0.436 2.283 1.98 10.205 5.295 27.284-10.88 42.202l-0.435 0.402c-2.087 1.925-4.944 4.561-5.416 5.469l0 0c0.003 0-0.133 0.427-0.165 1.584 0.328 4.296 3.654 40.06 24.764 70.555 5.392 7.788 12.946 16.357 21.693 26.279 30.841 34.985 73.079 82.899 80.26 164.266 3.26 36.959 1.019 52.388-2.985 60.154-5.226 15.043-22.428 35.767-93.189 54.396-36.365 9.574-71.006 14.497-75.189 15.074-39.834 6.958-73.196 18.883-99.16 35.445-20.186 12.876-35.971 28.599-46.919 46.732-18.282 30.282-17.133 57.861-17.055 59.336 0.05 0.543 0.054 0.868 0.054 1.434l0 4.309 700.077 0M631.465 689.874c0.454 0.368 0.89 0.757 1.306 1.165C632.377 690.652 631.942 690.261 631.465 689.874zM414.041 689.874c-0.472 0.383-0.902 0.768-1.292 1.152C413.16 690.625 413.592 690.24 414.041 689.874z" p-id="3102"></path>
</svg>