<?xml version="1.0" standalone="no"?><!DOCTYPE svg PUBLIC "-//W3C//DTD SVG 1.1//EN" "http://www.w3.org/Graphics/SVG/1.1/DTD/svg11.dtd"><svg t="1597823599680" class="icon" viewBox="0 0 1024 1024" version="1.1" xmlns="http://www.w3.org/2000/svg" p-id="5083" xmlns:xlink="http://www.w3.org/1999/xlink" width="200" height="200"><defs><style type="text/css"></style></defs><path d="M762.4704 901.12H261.5296C207.6672 901.12 163.84 857.2928 163.84 803.4304V220.5696C163.84 166.7072 207.6672 122.88 261.5296 122.88H512c11.264 0 20.48 9.216 20.48 20.48s-9.216 20.48-20.48 20.48H261.5296A56.7296 56.7296 0 0 0 204.8 220.5696v582.8608A56.7296 56.7296 0 0 0 261.5296 860.16h500.9408A56.7296 56.7296 0 0 0 819.2 803.4304V512c0-11.264 9.216-20.48 20.48-20.48s20.48 9.216 20.48 20.48v291.4304c0 53.8624-43.8272 97.6896-97.6896 97.6896z" p-id="5084"></path><path d="M839.68 327.68H512c-11.264 0-20.48-9.216-20.48-20.48s9.216-20.48 20.48-20.48h327.68c11.264 0 20.48 9.216 20.48 20.48s-9.216 20.48-20.48 20.48z" p-id="5085"></path><path d="M675.84 491.52c-11.264 0-20.48-9.216-20.48-20.48V143.36c0-11.264 9.216-20.48 20.48-20.48s20.48 9.216 20.48 20.48v327.68c0 11.264-9.216 20.48-20.48 20.48z" p-id="5086"></path></svg>