<?xml version="1.0" standalone="no"?><!DOCTYPE svg PUBLIC "-//W3C//DTD SVG 1.1//EN" "http://www.w3.org/Graphics/SVG/1.1/DTD/svg11.dtd"><svg t="1619143474138" class="icon" viewBox="0 0 1024 1024" version="1.1" xmlns="http://www.w3.org/2000/svg" p-id="2165" xmlns:xlink="http://www.w3.org/1999/xlink" width="200" height="200"><defs><style type="text/css"></style></defs><path d="M1019.865824 767.199065c-2.399684-12.398369-11.698461-22.297067-23.996843-25.196685-14.798053-3.49954-27.096435-12.698329-34.695435-25.896593-7.599-13.29825-9.298777-28.896198-4.799369-43.794238 3.599526-11.998421-0.099987-25.096698-9.49875-33.29562-21.297198-18.69754-45.693988-32.895672-72.29049-42.294435-11.898435-4.199448-25.296672-0.899882-33.89554 8.498882-10.298645 11.298514-24.296803 17.497698-39.29483 17.497698-14.998027 0-28.896198-6.199184-39.294831-17.497698-8.598869-9.398763-21.897119-12.698329-33.89554-8.398895-26.696488 9.398763-50.993291 23.696882-72.390476 42.394422-9.398763 8.198921-13.198264 21.297198-9.498751 33.29562 4.499408 14.89804 2.799632 30.396001-4.799368 43.694251-7.499013 13.29825-19.797395 22.49704-34.595449 25.896593-12.398369 2.899619-21.797132 12.798316-24.09683 25.196685-2.699645 14.098145-3.999474 28.296277-3.999474 42.194449 0 13.798185 1.299829 27.996317 3.999474 42.194449 2.399684 12.398369 11.798448 22.297067 23.996843 25.096698 14.798053 3.49954 27.096435 12.698329 34.695436 25.896593 7.599 13.398237 9.298777 28.896198 4.799368 43.794238-3.599526 11.998421 0.099987 25.096698 9.498751 33.29562 21.297198 18.69754 45.693988 32.895672 72.390476 42.394422 3.399553 1.199842 6.899092 1.799763 10.498618 1.799764 8.898829 0 17.397711-3.699513 23.296935-10.198659 10.398632-11.298514 24.39679-17.497698 39.294831-17.497698 14.998027 0 28.896198 6.199184 39.29483 17.497698 8.598869 9.298777 21.797132 12.598343 33.895541 8.498882 26.596501-9.398763 50.993291-23.596896 72.390476-42.394422 9.398763-8.198921 13.098277-21.297198 9.49875-33.29562-4.499408-14.89804-2.799632-30.396001 4.799369-43.694251 7.599-13.29825 19.897382-22.49704 34.595448-25.896593 12.298382-2.799632 21.697145-12.698329 24.09683-25.196685 2.699645-14.198132 3.999474-28.396264 3.999474-42.194449 0-13.998158-1.299829-28.19629-3.999474-42.394423z m-42.494409 68.49099c-23.296935 7.599-42.594396 23.296935-54.892779 44.894093-12.298382 21.597159-16.097882 46.393896-10.898566 70.490726-13.598211 10.898566-28.496251 19.697409-44.494146 26.096567-18.097619-16.597816-41.19458-25.596632-65.791344-25.596633-24.596764 0-47.693725 8.998816-65.791345 25.596633-16.097882-6.499145-30.995922-15.198001-44.494146-26.096567 5.199316-24.09683 1.399816-48.893567-10.798579-70.490726-12.298382-21.597159-31.595843-37.295093-54.892778-44.894093-1.299829-8.898829-1.999737-17.697672-1.999737-26.296541 0-8.598869 0.699908-17.397711 1.999737-26.29654 23.296935-7.599 42.594396-23.296935 54.892778-44.894094 12.298382-21.597159 15.997895-46.393896 10.798579-70.490726 13.498224-10.898566 28.496251-19.597422 44.494146-26.096567 18.097619 16.597816 41.19458 25.596632 65.791345 25.596633 24.696751 0 47.793712-8.998816 65.791344-25.596633 16.097882 6.499145 30.995922 15.198001 44.494146 26.096567-5.199316 24.196817-1.499803 48.893567 10.898566 70.490726 12.298382 21.597159 31.69583 37.39508 54.892779 44.894094 1.299829 8.898829 1.999737 17.697672 1.999736 26.29654 0 8.598869-0.699908 17.497698-1.999736 26.296541z" p-id="2166"></path><path d="M801.29458 714.306024c-52.393107 0-95.08749 42.694383-95.08749 95.08749 0 52.393107 42.694383 95.08749 95.08749 95.08749 12.298382 0 22.297067-9.998685 22.297066-22.297066s-9.998685-22.297067-22.297066-22.297067c-27.89633 0-50.593344-22.697014-50.593344-50.593344 0-27.89633 22.697014-50.593344 50.593344-50.593343s50.593344 22.697014 50.593343 50.593343c0 12.298382 9.998685 22.297067 22.297067 22.297067s22.297067-9.998685 22.297067-22.297067c-0.099987-52.29312-42.79437-94.987503-95.187477-94.987503zM233.069337 117.084596L111.485333 434.942778h55.692673l28.896198-79.689516h133.082491l28.896199 79.689516h55.692673L292.261549 117.084596h-59.192212z m-21.397185 195.374296L261.965535 173.177216h1.799763l49.893436 139.281676h-101.986582zM561.126177 117.084596H444.941462V434.942778h116.184715c51.293252 0 90.388108-14.198132 117.084596-42.694383 25.496646-27.296409 38.294962-65.991318 38.294962-116.184715 0-50.493357-12.798316-89.188266-38.294962-116.184714-26.696488-28.596238-65.791344-42.79437-117.084596-42.79437z m76.989871 245.767666c-18.39758 18.39758-47.293778 27.596369-86.788582 27.59637h-54.292857V161.578742h54.292857c39.794765 0 68.690963 9.098803 86.788582 27.196422 17.797658 17.797658 26.696488 46.893831 26.696488 87.288516 0 39.094857-8.898829 68.091042-26.696488 86.788582z" p-id="2167"></path><path d="M556.426795 979.371151H66.791213c-12.298382 0-22.297067-9.998685-22.297067-22.297066V556.426795h776.597829c0.799895 0.099987 1.59979 0.199974 2.399684 0.199974 0.799895 0 1.59979-0.199974 2.399685-0.199974h19.797395V66.791213C845.788726 29.996054 815.892659 0 778.997513 0H66.791213C29.996054 0 0 29.996054 0 66.791213v890.282872C0 993.869244 29.996054 1023.865298 66.791213 1023.865298h489.635582c12.298382 0 22.297067-9.998685 22.297067-22.297067s-9.998685-22.19708-22.297067-22.19708zM44.494146 66.791213c0-12.298382 9.998685-22.297067 22.297067-22.297067h712.2063c12.298382 0 22.297067 9.998685 22.297067 22.297067V511.932649H44.494146V66.791213z" p-id="2168"></path><path d="M511.932649 823.591646H137.981847c-12.298382 0-22.297067 9.998685-22.297067 22.297067s9.998685 22.297067 22.297067 22.297066h373.950802c12.298382 0 22.297067-9.998685 22.297066-22.297066s-9.998685-22.297067-22.297066-22.297067zM514.932254 667.712154H137.981847c-12.298382 0-22.297067 9.998685-22.297067 22.297067s9.998685 22.297067 22.297067 22.297066h376.950407c12.298382 0 22.297067-9.998685 22.297067-22.297066s-9.998685-22.297067-22.297067-22.297067z" p-id="2169"></path></svg>