<?xml version="1.0" standalone="no"?><!DOCTYPE svg PUBLIC "-//W3C//DTD SVG 1.1//EN" "http://www.w3.org/Graphics/SVG/1.1/DTD/svg11.dtd"><svg t="1613285883297" class="icon" viewBox="0 0 1024 1024" version="1.1" xmlns="http://www.w3.org/2000/svg" p-id="18582" width="500" height="500" xmlns:xlink="http://www.w3.org/1999/xlink"><defs><style type="text/css"></style></defs><path d="M960 448v512H64V64h512V0H0v1024h1024V448h-64zM259.2 499.2c-3.2 3.2-3.2 6.4-3.2 12.8v192c0 35.2 28.8 64 64 64h192c16 0 28.8-9.6 32-25.6L976 310.4c25.6-25.6 25.6-64 0-89.6l-182.4-182.4c-25.6-25.6-64-25.6-89.6 0L252.8 489.6l6.4 9.6z m489.6-416l182.4 182.4L524.8 672l-182.4-182.4L748.8 83.2zM320 556.8l147.2 147.2H320v-147.2zM128 896h768v-64H128v64z" fill="" p-id="18583"></path></svg>