<?xml version="1.0" standalone="no"?><!DOCTYPE svg PUBLIC "-//W3C//DTD SVG 1.1//EN" "http://www.w3.org/Graphics/SVG/1.1/DTD/svg11.dtd"><svg t="1613282439229" class="icon" viewBox="0 0 1025 1024" version="1.1" xmlns="http://www.w3.org/2000/svg" p-id="12891" xmlns:xlink="http://www.w3.org/1999/xlink" width="500.48828125" height="500"><defs><style type="text/css"></style></defs><path d="M252.416 264.704c0-103.424 85.504-188.928 188.928-188.928s188.928 85.504 188.928 188.928-85.504 188.928-188.928 188.928-188.928-85.504-188.928-188.928zM131.584 937.984c-30.72 0.512-56.32-24.064-56.832-55.296v-1.536c0-188.928 146.432-345.6 331.776-363.52H445.44c43.008-3.584 103.424-14.336 135.168-43.008l14.336-10.752c60.416-50.176 96.256-121.344 96.256-199.68 0-139.264-114.176-252.928-256.512-252.928-132.096 0-245.76 114.176-245.76 252.928 0 78.336 35.328 149.504 96.256 199.68l17.92 10.752-17.92 7.168C120.832 545.792 10.752 702.464 10.752 880.64c-0.512 66.56 52.736 120.832 118.784 121.344H455.68c10.752 0 28.16-10.752 28.16-32.256 0-25.088-17.92-32.256-28.16-32.256H131.584z m822.784-142.336c-53.248 7.168-92.672 50.176-92.672 106.496 0 10.752 3.584 25.088 7.168 32.256l-46.08 25.088-17.92-17.92c-20.992-14.336-38.912-20.992-60.416-20.992-17.92 0-38.912 7.168-60.416 20.992-7.168 7.168-14.336 10.752-17.92 17.92l-43.008-25.088c3.072-7.168 7.168-20.992 7.168-32.256 0-53.76-39.424-99.328-92.672-106.496 0-7.168-3.584-20.992-3.584-35.84 0-10.752 3.584-25.088 3.584-35.84 53.248-7.168 92.672-50.176 92.672-107.008 0-10.752-3.072-25.088-7.168-32.256l46.08-25.088c3.072 3.584 10.24 10.752 17.92 14.336 20.992 14.336 38.912 20.992 56.832 20.992s35.328-7.168 56.832-20.992c7.168-7.168 14.336-10.752 17.92-14.336l46.08 25.088c-3.072 7.168-7.168 20.992-7.168 32.256 0 53.76 39.424 99.328 93.184 107.008 0 7.168 3.072 20.992 3.072 35.84 4.608 10.752 0.512 25.088 0.512 35.84z m50.176-89.088c-3.584-17.92-17.92-32.256-32.256-32.256h-3.584c-32.256 0-56.832-25.088-56.832-56.832 0-7.168 3.072-17.92 3.072-20.992 7.168-17.92 0-38.912-14.336-50.176l-64-35.84H819.2c-10.24 0-25.088 3.072-32.256 14.336-7.168 7.168-28.16 25.088-43.008 25.088-14.336 0-35.84-17.92-46.08-25.088-7.168-7.168-17.92-14.336-32.256-14.336-7.168 0-10.752 0-14.336 3.072l-67.584 35.84c-14.336 10.752-20.992 32.256-14.336 50.176 0 0 3.072 10.752 3.072 20.992 0.512 30.72-24.064 56.32-54.784 56.832H512c-14.336 0-28.16 14.336-32.256 32.256 0 3.584-7.168 28.16-7.168 53.248 0 20.992 3.072 50.176 7.168 53.248 3.584 17.92 17.92 32.256 32.256 32.256h3.584c32.256 0 56.832 25.088 56.832 56.832 0 7.168-3.072 17.92-3.072 20.992-7.168 17.92 0 38.912 14.336 50.176l64 35.84c7.168-3.584 10.752-3.584 17.92-3.584 10.752 0 25.088-3.072 32.256-14.336 7.168-7.168 28.16-28.16 46.08-28.16 14.336 0 38.912 17.92 46.08 28.16 7.168 7.168 17.92 14.336 32.256 14.336 7.168 0 10.752 0 17.92-3.072l64-35.84c14.336-10.752 20.992-32.256 14.336-50.176 0 0-3.072-10.24-3.072-20.992 0-32.256 25.088-56.832 56.832-56.832h3.072c14.336 0 28.16-14.336 32.256-32.256 0 0 7.168-28.16 7.168-53.248-7.168-17.408-10.24-46.08-10.24-49.664z m-260.096 99.328c-25.088 0-46.08-20.992-46.08-46.08s20.992-46.08 46.08-46.08 46.08 20.992 46.08 46.08c0.512 25.088-21.504 46.08-46.08 46.08z m17.408-142.336c-68.096-14.336-128.512 46.08-114.176 117.248 7.168 38.912 38.912 71.168 78.336 78.336 68.096 14.336 128.512-46.08 114.176-114.176-6.656-41.984-38.912-74.24-78.336-81.408z" p-id="12892"></path></svg>