<?xml version="1.0" standalone="no"?>
<!DOCTYPE svg PUBLIC "-//W3C//DTD SVG 1.1//EN" "http://www.w3.org/Graphics/SVG/1.1/DTD/svg11.dtd"><svg t="1617674121963" class="icon" viewBox="0 0 1024 1024" version="1.1" xmlns="http://www.w3.org/2000/svg" p-id="2077" xmlns:xlink="http://www.w3.org/1999/xlink" width="200" height="200">
  <defs>
    <style type="text/css"></style>
  </defs>
  <path d="M723.84 1024H186.88a95.36 95.36 0 0 1-95.36-95.36V241.28a95.36 95.36 0 0 1 95.36-95.36h405.76l226.56 226.56v556.8A95.36 95.36 0 0 1 723.84 1024zM186.88 209.92a31.36 31.36 0 0 0-31.36 31.36v688a31.36 31.36 0 0 0 31.36 31.36h536.96a31.36 31.36 0 0 0 32-31.36V398.72l-192-192z" p-id="2078"></path>
  <path d="M848 0h-537.6a94.72 94.72 0 0 0-94.72 96v5.76h64V96a31.36 31.36 0 0 1 30.72-32h537.6a31.36 31.36 0 0 1 31.36 32v687.36a32 32 0 0 1-31.36 32h-3.84v64h3.84a95.36 95.36 0 0 0 94.72-95.36V96A94.72 94.72 0 0 0 848 0z" p-id="2079"></path>
  <path d="M454.4 471.04H256a32 32 0 1 1 0-64h198.4a32 32 0 1 1 0 64zM606.72 647.04H256a32 32 0 1 1 0-64h350.72a32 32 0 0 1 0 64zM606.72 822.4H256a32 32 0 0 1 0-64h350.72a32 32 0 0 1 0 64z" p-id="2080"></path>
</svg>