<?xml version="1.0" encoding="UTF-8"?>
<svg width="898px" height="808px" viewBox="0 0 898 808" version="1.1" xmlns="http://www.w3.org/2000/svg" xmlns:xlink="http://www.w3.org/1999/xlink">
  <!-- Generator: Sketch 61 (89581) - https://sketch.com -->
  <title>pic@1x</title>
  <desc>Created with Sketch.</desc>
  <defs>
    <path d="M47.375347,22.6289062 C37.2842012,29.1339362 30.6237194,35.9864752 27.3939017,43.1865234 C22.5491751,53.9865957 26.9156713,57.7128906 23.0162572,63.8046875 C19.1168432,69.8964844 -1.41566864,40.9677734 0.0774954217,31.9716797 C1.57065948,22.9755859 29.6009329,-2.41796875 32.2386282,0.978515625 C33.9970918,3.24283854 39.0426647,10.4596354 47.375347,22.6289062 Z" id="path-1"></path>
    <path d="M0.569037703,22.6674716 C10.4559357,32.5880445 16.631717,37.5483309 19.0963815,37.5483309 C22.7933782,37.5483309 54.6862252,23.5756747 42.7995065,17.4995028 C30.9127877,11.4233309 18.7506783,4.82372157 10.3034127,0.587393448 C4.67190229,-2.2368253 1.42711062,5.12320074 0.569037703,22.6674716 Z" id="path-3"></path>
    <linearGradient x1="0%" y1="48.3472356%" x2="100%" y2="48.537243%" id="linearGradient-5">
      <stop stop-color="#00D885" offset="0%"></stop>
      <stop stop-color="#00D885" offset="39.1622387%"></stop>
      <stop stop-color="#F2FFE5" offset="39.187355%"></stop>
      <stop stop-color="#F2FFE5" offset="100%"></stop>
    </linearGradient>
    <linearGradient x1="100%" y1="48.1964599%" x2="-0.90067707%" y2="48.3419873%" id="linearGradient-6">
      <stop stop-color="#00D885" offset="0%"></stop>
      <stop stop-color="#00D885" offset="38.2981865%"></stop>
      <stop stop-color="#F2FFE5" offset="38.3930404%"></stop>
      <stop stop-color="#F2FFE5" offset="100%"></stop>
    </linearGradient>
  </defs>
  <g id="页面-1" stroke="none" stroke-width="1" fill="none" fill-rule="evenodd">
    <g id="登录7" transform="translate(-180.000000, -160.000000)">
      <g id="pic" transform="translate(180.000000, 160.000000)">
        <rect id="矩形" x="0" y="0" width="898" height="808"></rect>
        <g id="手" transform="translate(379.453423, 430.178711)" fill="#FFD9C1">
          <path d="M1.12079572,12.1367187 C2.22536112,10.148463 6.7780047,12.7237478 12.6622908,10.5000575 C18.546577,8.27636719 24.6657176,-2.13162821e-14 31.7145457,-2.13162821e-14 C38.7633738,-2.13162821e-14 49.6735301,7.34863281 52.6002879,17.8740234 C54.5514598,24.8909505 51.2073843,24.2067057 42.5680613,15.8212891 C41.750353,13.3649089 40.6107046,12.1367188 39.149116,12.1367188 C36.9567332,12.1367188 35.843452,15.9267578 33.6862254,17.8740234 C31.5289988,19.8212891 7.94914154,32.0714287 3.24785925,27.4463589 C-1.45342303,22.8212891 0.0162303214,14.1249745 1.12079572,12.1367187 Z" id="路径-75"></path>
          <ellipse id="椭圆形" cx="66.546577" cy="17.3212891" rx="7" ry="5.5"></ellipse>
        </g>
        <ellipse id="椭圆形备份" fill="#F0F2F5" cx="466" cy="735.5" rx="154" ry="10.5"></ellipse>
        <g id="桌椅" transform="translate(202.000000, 333.000000)">
          <rect id="矩形" fill="#5991C4" x="25" y="390" width="62" height="12" rx="6"></rect>
          <rect id="矩形" fill="#E1E1FF" x="0" y="209" width="96" height="20" rx="10"></rect>
          <rect id="矩形" fill="#FFDBDE" x="51" y="228" width="10" height="163"></rect>
          <rect id="矩形" fill="#E5555E" x="46" y="262" width="20" height="52" rx="3"></rect>
          <rect id="矩形" fill="#B6DCFF" x="141" y="120" width="253" height="14"></rect>
          <polygon id="矩形备份-13" fill="#1890FF" points="196 113 317 113 317 121 196 121"></polygon>
          <polygon id="矩形备份-14" fill="#1890FF" transform="translate(326.500000, 61.000000) rotate(-78.000000) translate(-326.500000, -61.000000) " points="266 57 387 57 387 65 266 65"></polygon>
        </g>
        <g id="人" transform="translate(212.429609, 244.591479)">
          <path d="M171.591875,21.4231696 C177.637071,20.2921385 184.812209,32.2464118 174.413771,55.3548102 C164.015334,78.4632087 181.454275,87.9173102 156.570391,98.7923102 C131.686506,109.66731 114.410234,78.0100837 136.011797,57.4173102 C157.613359,36.8245368 165.546679,22.5542008 171.591875,21.4231696 Z" id="路径-71" fill="#480005"></path>
          <g id="路径-2" transform="translate(103.176489, 31.944654)">
            <mask id="mask-2" fill="white">
              <use xlink:href="#path-1"></use>
            </mask>
            <use id="蒙版" fill="#FFD9C1" xlink:href="#path-1"></use>
            <path d="M27.3939017,21.4775391 C25.484722,34.5224609 32.1273001,43.9277344 39.1751517,43.9277344 C46.2230032,43.9277344 41.0892142,13.2725301 39.1751517,13.2725301 C37.2610892,13.2725301 29.3030814,8.43261719 27.3939017,21.4775391 Z" fill="#FFB382" mask="url(#mask-2)"></path>
          </g>
          <path d="M171.209062,20.6819587 C177.768358,27.5354394 173.882891,58.6370368 161.070391,69.1389899 C148.257891,79.6409431 125.009844,69.6311774 133.511797,42.4182868 C142.01375,15.2053962 164.649767,13.828478 171.209062,20.6819587 Z" id="路径-69" fill="#FFD9C1"></path>
          <path d="M156.570391,42.6311774 C164.561602,42.6311774 173.007891,38.8157477 174.347156,22.9163337 C175.686421,7.01691962 156.570391,-2.72722101 140.569414,0.677075867 C124.568437,4.08137274 104.39168,16.6370368 85.3291797,13.9036384 C66.2666797,11.1702399 56.8838672,28.1223884 56.8838672,35.4075446 C56.8838672,42.6927009 52.9619922,42.3401618 46.5586719,48.5725837 C40.1553516,54.8050056 35.2657031,69.7464118 48.248125,69.7464118 C61.2305469,69.7464118 64.5576953,74.1311774 64.5576953,86.2239509 C64.5576953,98.3167243 89.6469641,92.2714033 110.274492,75.7610602 C123.832109,64.9094977 127.915804,49.3129809 133.437578,42.6311774 C140.159258,34.4973884 148.57918,42.6311774 156.570391,42.6311774 Z" id="路径-70" fill="#480005"></path>
          <path d="M14.5703906,197.408521 C11.1953906,206.624667 11.1953906,214.958 14.5703906,222.408521 C19.6328906,233.584302 61.6356597,247.408521 76.5703906,222.408521 C91.5051215,197.408521 102.570391,187.416334 76.5703906,182.418287 C59.2370573,179.086256 38.5703906,184.083 14.5703906,197.408521 Z" id="路径-82" fill="#FFD9C1"></path>
          <path d="M134.996172,153.532545 C139.528398,163.768873 146.981523,182.257154 153.016831,190.575513 C159.052138,198.893873 139.682289,196.887037 126.192746,190.575513 C112.703203,184.26399 92.3990522,166.216138 99.8242969,160.408521 C107.249542,154.600904 130.463945,143.296216 134.996172,153.532545 Z" id="路径-74" fill="#FFD9C1"></path>
          <g id="路径-72" transform="translate(309.770884, 429.709800)">
            <mask id="mask-4" fill="white">
              <use xlink:href="#path-3"></use>
            </mask>
            <use id="蒙版" fill="#FFD9C1" xlink:href="#path-3"></use>
            <path d="M19.5436471,8.06863733 C13.6504179,23.5078708 5.66050906,33.3677569 -4.42607948,37.6482956 C-19.5559623,44.0691036 -17.1829889,11.5733187 -10.1917412,8.06863733 C-5.53090945,5.73218307 4.38088666,5.73218307 19.5436471,8.06863733 Z" fill="#FFB382" mask="url(#mask-4)"></path>
          </g>
          <path d="M322.656328,463.963209 C329.259868,470.881177 336.231222,478.696282 343.570391,487.408521 C378.488307,459.952792 396.964844,442.825317 399,436.026096 C402.052734,425.827265 378.443437,421.791334 352.570391,444.709302 C347.931068,441.770986 344.093828,440.774241 341.058672,441.719068 C338.153724,448.780266 332.019609,456.19498 322.656328,463.963209 Z" id="路径-81" fill="#480005"></path>
          <path d="M183.308184,431.750806 C187.949785,431.09358 185.240312,438.346998 185.240312,444.184888 C185.240312,450.022779 209.862383,479.734693 198.216387,497.071607 C190.452389,508.62955 172.863359,490.53287 145.449297,442.781568 L164.201738,415.228345 C173.844967,426.68147 180.213783,432.188957 183.308184,431.750806 Z" id="路径-79" fill="#480005"></path>
          <path d="M167.023814,408.805006 L165.570391,420.428052 C173.072012,434.222323 178.784252,439.791334 182.707109,437.135084 C188.591396,433.150709 185.570391,420.305006 185.570391,417.097974 C185.570391,414.959953 179.388198,412.195631 167.023814,408.805006 Z" id="路径-78" fill="#FFD9C1"></path>
          <path d="M107.249542,213.033591 C179.557191,252.980159 221.664141,279.887037 233.570391,293.754224 C251.429766,314.555006 214.009844,389.258131 198.080156,425.957349 C177.686104,425.957349 166.570391,418.240552 163.070391,402.984693 C165.593828,395.222974 171.132399,376.748365 179.686104,347.560865 C118.661045,263.405917 89.309974,214.688469 91.6328906,201.408521 C93.9558073,188.128573 99.1613576,192.003597 107.249542,213.033591 Z" id="路径-77" fill="#071048"></path>
          <path d="M9.19148437,219.408521 C29.7873693,216.741855 57.4338537,213.075188 92.1309375,208.408521 L203.570391,301.879224 L332.564262,425.846021 C331.128195,443.580396 320.133155,453.771151 299.579143,456.418287 C283.840235,443.275058 239.170651,405.56998 165.570391,343.303052 C58.9545052,327.749667 6.82820312,286.45149 9.19148437,219.408521 Z" id="路径-76" fill="#0F195C"></path>
          <path d="M111.785234,75.3841071 C119.380667,84.4680915 124.183171,88.5387295 126.192746,87.5960212 C129.207109,86.1819587 131.686506,87.5960212 128.271562,96.5845488 C124.856619,105.573076 132.506914,120.598323 138.007891,130.225904 C143.508867,139.853485 142.744314,150.870602 136.42293,156.452466 C130.101545,162.034331 113.005937,171.592115 110.310625,171.592115 C107.615312,171.592115 159.090898,192.946607 165.570391,192.946607 C172.049883,192.946607 170.633867,211.514966 168.380937,211.514966 C166.128008,211.514966 120.382891,213.033591 105.709062,213.033591 C91.0352344,213.033591 56.0469531,211.974927 50.4014453,206.691724 C44.7559375,201.408521 2.62117187,208.408521 0.188554687,201.408521 C-2.2440625,194.408521 18.6807422,122.643085 73.4727344,85.8479743 C110.000729,61.3179004 122.771562,57.8299446 111.785234,75.3841071 Z" id="路径-73" fill="#FF616B"></path>
          <path d="M110.253984,171.74479 C110.253984,163.379445 112.766354,155.0141 117.791094,146.648756" id="路径-83" stroke="#480005" stroke-linecap="round" stroke-linejoin="round"></path>
          <path d="M50.5703906,205.812818 C52.9024219,162.508131 63.6921354,127.040032 82.9395312,99.4085212" id="路径-80" stroke="#480005" stroke-linecap="round" stroke-linejoin="round"></path>
        </g>
        <rect id="矩形备份-11" fill="#E1F1FF" x="556" y="464" width="9" height="268"></rect>
        <rect id="矩形" fill="#E1F1FF" x="369" y="464" width="9" height="268"></rect>
        <g id="图表1" transform="translate(20.000000, 83.000000)">
          <rect id="矩形" fill="#E1F1FF" x="0" y="0" width="248" height="136" rx="12"></rect>
          <rect id="矩形" fill="#B6DCFF" x="116" y="32" width="92" height="10" rx="5"></rect>
          <rect id="矩形备份-2" fill="#B6DCFF" x="116" y="92" width="92" height="10" rx="5"></rect>
          <rect id="矩形备份" fill="#B6DCFF" x="152" y="62" width="56" height="10" rx="5"></rect>
          <path d="M94,68 C94,50.326888 79.673112,36 62,36" id="路径" stroke="#B6DCFF" stroke-width="10"></path>
          <path d="M62,100 C79.673112,100 94,85.673112 94,68" id="路径" stroke="#7EC0FE" stroke-width="10"></path>
          <path d="M62,36 C44.326888,36 30,50.326888 30,68 C30,85.673112 44.326888,100 62,100" id="路径" stroke="#1890FF" stroke-width="10"></path>
        </g>
        <rect id="矩形" fill="#FFDBDE" x="794" y="276" width="52" height="36" rx="4"></rect>
        <rect id="矩形" fill="#E1F1FF" x="84" y="303" width="52" height="52" rx="6"></rect>
        <rect id="矩形备份-20" fill="#E1F1FF" x="404" y="60" width="62" height="58" rx="6"></rect>
        <rect id="矩形" fill="#EDDBFF" x="579" y="392" width="30" height="30" rx="4"></rect>
        <g id="图表2" transform="translate(492.000000, 145.000000)">
          <rect id="矩形备份-3" fill="#E1F1FF" x="0" y="0" width="251" height="136" rx="12"></rect>
          <rect id="矩形" fill="#B6DCFF" x="26" y="44" width="10" height="64" rx="5"></rect>
          <rect id="矩形备份-4" fill="#B6DCFF" x="53" y="68" width="10" height="48" rx="5"></rect>
          <rect id="矩形备份-5" fill="#B6DCFF" x="80" y="28" width="10" height="80" rx="5"></rect>
          <rect id="矩形备份-10" fill="#B6DCFF" x="107" y="48" width="10" height="56" rx="5"></rect>
          <rect id="矩形备份-12" fill="#B6DCFF" x="134" y="68" width="10" height="48" rx="5"></rect>
          <rect id="矩形备份-15" fill="#B6DCFF" x="161" y="20" width="10" height="80" rx="5"></rect>
          <rect id="矩形备份-16" fill="#B6DCFF" x="188" y="44" width="10" height="64" rx="5"></rect>
          <rect id="矩形备份-17" fill="#B6DCFF" x="215" y="40" width="10" height="72" rx="5"></rect>
        </g>
        <g id="植物" transform="translate(612.966827, 330.949574)">
          <ellipse id="椭圆形" fill="#F0F2F5" cx="123.033173" cy="424.050426" rx="44" ry="3"></ellipse>
          <path d="M65.1900656,337 L136.809934,337 C137.914504,337 138.809934,337.895431 138.809934,339 C138.809934,339.06045 138.807194,339.120869 138.801721,339.181071 L131.165357,423.181071 C131.071706,424.21123 130.207977,425 129.173571,425 L72.8264293,425 C71.7920229,425 70.9282936,424.21123 70.8346429,423.181071 L63.1982792,339.181071 C63.0982762,338.081038 63.9089609,337.108217 65.0089941,337.008214 C65.0691962,337.002741 65.1296154,337 65.1900656,337 Z" id="矩形" fill="#FF616B"></path>
          <path d="M138.348809,265.464019 C138.443545,255.840378 152.137324,243.79185 168.69588,245.491247 C185.254436,247.190645 186.502663,265.464019 197.950358,265.464019 C209.398052,265.464019 185.451605,282.221907 168.336247,282.221907 C151.220889,282.221907 138.255093,275.087659 138.348809,265.464019 Z" id="路径-66" fill="#00D885"></path>
          <path d="M62.6854948,240.949517 C63.5626698,231.257468 50.8426499,219.686417 34.6981663,219.686417 C18.5536827,219.686417 13.3483664,238.022569 2.86103785,238.022569 C-7.62629066,238.022569 12.7270488,256.358721 31.3791543,256.358721 C50.0312599,256.358721 61.8083198,250.641566 62.6854948,240.949517 Z" id="路径-67" fill="#00D885"></path>
          <path d="M110.170251,104.540885 C112.489468,99.8190867 110.170251,82.921641 93.864039,74.2166541 C77.5578271,65.5116671 38.133611,77.2748403 51.702144,80.0982406 C65.270677,82.921641 65.270677,99.8190867 72.9343991,104.540885 C80.5981213,109.262684 107.851034,109.262684 110.170251,104.540885 Z" id="路径-68" fill="#00D885"></path>
          <path d="M145.545394,90.4151966 C149.525391,82.8279114 173.072958,77.3014743 185.76888,82.921641 C198.464802,88.5418077 211.32712,117.402452 200.938207,115.124917 C190.549294,112.847383 182.309399,121.180558 168.149838,117.402452 C153.990278,113.624346 141.565396,98.0024819 145.545394,90.4151966 Z" id="路径-84" fill="#00D885"></path>
          <path d="M165.743088,53.0129224 C159.521853,46.2569163 159.961947,21.0507464 172.865413,10.6867982 C185.76888,0.322850011 214.860474,-4.49231767 208.641097,5.43646472 C202.42172,15.3652471 206.045108,28.1101023 197.950358,39.3543858 C189.855607,50.5986694 171.964323,59.7689285 165.743088,53.0129224 Z" id="路径-85" fill="#00D885"></path>
          <path d="M99.9747002,339.842191 L99.9747002,141.266543 C100.309498,114.287376 110.705124,98.5247047 131.161581,93.9785284 C161.846266,87.1592639 165.743568,55.3171706 165.743568,53.0129224" id="路径-86" stroke="#00D885" stroke-linecap="round"></path>
          <path d="M99.9747002,282.221907 C109.677394,271.049981 123.317034,265.464019 140.893622,265.464019 C158.470209,265.464019 177.489121,265.464019 197.950358,265.464019" id="路径-87" stroke="url(#linearGradient-5)" stroke-linecap="round"></path>
          <path d="M99.9747002,256.358721 C90.5955716,244.13462 78.3764723,238.022569 63.3174022,238.022569 C48.2583321,238.022569 28.2957273,238.022569 3.42958777,238.022569" id="路径-88" stroke="url(#linearGradient-6)" stroke-linecap="round"></path>
          <path d="M110.170251,104.540885 C100.983418,94.0491135 83.8046513,86.8426987 58.6339513,82.921641" id="路径-89" stroke="#F2FFE5" stroke-linecap="round"></path>
          <path d="M144.79262,93.7312632 C167.079435,93.7312632 185.794631,100.862481 200.938207,115.124917" id="路径-90" stroke="#F2FFE5" stroke-linecap="round"></path>
          <path d="M165.743568,54.5343353 C169.480227,33.8695186 183.779404,17.5035617 208.641097,5.43646472" id="路径-91" stroke="#F2FFE5" stroke-linecap="round"></path>
        </g>
      </g>
    </g>
  </g>
</svg>