<svg t="1600849846001" viewBox="0 0 1024 1024" version="1.1" xmlns="http://www.w3.org/2000/svg" p-id="7534" width="64" height="64">
  <path d="M288.992 296.992h92.992q14.016 0 23.008 8.992t8.992 22.496-8.992 22.496-23.008 10.016H232.992q-14.016-0.992-23.008-10.016t-8.992-22.016V179.968q0-14.016 8.992-23.008t23.008-8.992 23.008 8.992 8.992 23.008v50.016q86.016-76.992 196.512-95.488t217.504 26.496q106.016 48 167.488 142.016t62.496 210.016q-4 163.008-112.512 271.488t-271.488 112.512q-163.008-4-271.488-112.512t-112.512-271.488h64q3.008 136 93.504 226.496t226.496 93.504q136-3.008 226.016-93.504t94.016-226.496q-0.992-100.992-56-180.512t-148-117.504q-94.016-35.008-188.512-13.504T289.024 296.992z" p-id="7535" fill="currentColor"></path>
</svg>