<?xml version="1.0" standalone="no"?><!DOCTYPE svg PUBLIC "-//W3C//DTD SVG 1.1//EN" "http://www.w3.org/Graphics/SVG/1.1/DTD/svg11.dtd"><svg t="1613284823218" class="icon" viewBox="0 0 1205 1024" version="1.1" xmlns="http://www.w3.org/2000/svg" p-id="16119" xmlns:xlink="http://www.w3.org/1999/xlink" width="588.37890625" height="500"><defs><style type="text/css"></style></defs><path d="M1189.611371 1024 1084.202768 1024 783.035333 1024 722.801845 1024 481.867897 1024 421.63441 1024 120.466974 1024 15.058372 1024C6.746151 1024 0 1017.253849 0 1008.941628L0 978.824884C0 970.512664 6.746151 963.766513 15.058372 963.766513L120.466974 963.766513 120.466974 421.635012C120.466974 388.386127 147.421459 361.401525 180.700461 361.401525L421.63441 361.401525 421.63441 240.964667C421.63441 207.685665 448.588895 180.73118 481.867897 180.73118L722.801845 180.73118 722.801845 60.234089C722.801845 26.985204 749.756331 0.000602 783.035333 0.000602L1023.969281 0.000602C1057.218165 0.000602 1084.202768 26.985204 1084.202768 60.234089L1084.202768 963.766513 1189.611371 963.766513C1197.923591 963.766513 1204.669742 970.512664 1204.669742 978.824884L1204.669742 1008.941628C1204.669742 1017.253849 1197.923591 1024 1189.611371 1024ZM421.63441 421.635012 180.700461 421.635012 180.700461 963.766513 421.63441 963.766513 421.63441 421.635012ZM722.801845 240.934551 481.867897 240.934551 481.867897 963.766513 722.801845 963.766513 722.801845 240.934551ZM1023.969281 60.264206 783.035333 60.264206 783.035333 963.766513 1023.969281 963.766513 1023.969281 60.264206Z" p-id="16120"></path></svg>