<?xml version="1.0" standalone="no"?><!DOCTYPE svg PUBLIC "-//W3C//DTD SVG 1.1//EN" "http://www.w3.org/Graphics/SVG/1.1/DTD/svg11.dtd"><svg t="1600830969982" class="icon" viewBox="0 0 1024 1024" version="1.1" xmlns="http://www.w3.org/2000/svg" p-id="903" xmlns:xlink="http://www.w3.org/1999/xlink" width="200" height="200"><defs><style type="text/css"></style></defs><path d="M380.87804844 92.40975594h-288.4682925v288.4682925c0 57.88097531 46.92292688 104.89756125 104.89756125 104.89756125h288.4682925v-288.4682925c0-57.97463438-46.92292688-104.89756125-104.89756125-104.89756125z m39.33658593 249.13170751v78.67317093h-209.79512249c-28.94048813 0-52.44878062-23.5082925-52.44878063-52.44878063 0-4.58926875 0.74926875-8.89756125 1.87317094-13.11219563h-1.87317094V158.06439031h209.7951225c28.94048813 0 52.44878062 23.5082925 52.44878063 52.44878063v131.02829251zM92.40975594 643.12195156v288.4682925h288.4682925c57.88097531 0 104.89756125-46.92292688 104.89756125-104.89756125v-288.4682925h-288.4682925c-57.97463438 0-104.89756125 46.92292688-104.89756125 104.89756125z m327.80487843-39.43024406v209.88878063c0 28.94048813-23.5082925 52.44878062-52.44878062 52.44878062h-209.7951225V669.25268281h1.87317094c-1.12390219-4.21463438-1.87317094-8.52292687-1.87317094-13.11219468 0-28.94048813 23.5082925-52.44878062 52.44878062-52.44878063h209.7951225zM748.01951187 380.87804844h33.71707313c24.81951187 0 44.95609781-21.91609781 44.95609781-48.98341407v-62.56390312c0-3.65268281-2.903415-6.55609781-6.55609781-6.55609688h-13.11219469c-3.65268281 0-6.55609781 2.903415-6.55609781 6.55609688v59.00487844c0 19.6682925-9.36585375 26.22439031-26.22439031 26.22439031h-26.22439032c-7.2117075 0-13.11219469 5.90048812-13.11219468 13.11219469-0.09365813 7.39902469 5.80682906 13.20585375 13.11219468 13.20585375z" p-id="904"></path><path d="M643.12195156 92.40975594c-57.97463438 0-104.89756125 46.92292688-104.89756125 104.89756125v288.4682925h288.4682925c57.97463438 0 104.89756125-47.016585 104.89756125-104.89756125v-288.4682925h-288.4682925z m223.00097532 262.33756125h-1.96682907c1.12390219 4.21463438 1.87317094 8.52292687 1.87317094 13.11219468 0 28.94048813-23.5082925 52.44878062-52.44878063 52.44878063h-209.79512249v-78.67317094-131.12195062c0-28.94048813 23.5082925-52.44878062 52.44878062-52.44878063h209.88878063v196.68292688zM826.69268281 538.22439031h-288.4682925v288.4682925c0 57.88097531 46.92292688 104.89756125 104.89756125 104.89756125h288.4682925v-288.4682925c0-57.97463438-46.92292688-104.89756125-104.89756125-104.89756125z m39.33658594 131.12195157v196.68292687H656.14048812c-28.94048813 0-52.44878062-23.5082925-52.44878062-52.44878062v-209.7951225h209.79512156c28.94048813 0 52.44878062 23.5082925 52.44878063 52.44878062 0 4.58926875-0.74926875 8.89756125-1.87317094 13.11219563h1.96683z" p-id="905"></path><path d="M695.57073125 380.87804844c7.2117075 0 13.11219469-5.90048812 13.11219563-13.11219469s-5.90048812-13.11219469-13.11219563-13.11219563-13.11219469 5.90048812-13.11219468 13.11219563c0 7.30536563 5.90048812 13.11219469 13.11219468 13.11219469z" p-id="906"></path></svg>