<?xml version="1.0" standalone="no"?><!DOCTYPE svg PUBLIC "-//W3C//DTD SVG 1.1//EN" "http://www.w3.org/Graphics/SVG/1.1/DTD/svg11.dtd"><svg t="1618298301581" class="icon" viewBox="0 0 1024 1024" version="1.1" xmlns="http://www.w3.org/2000/svg" p-id="2785" width="200" height="200" xmlns:xlink="http://www.w3.org/1999/xlink"><defs><style type="text/css"></style></defs><path d="M896 544 128 544C110.32 544 96 529.68 96 512 96 494.32 110.32 480 128 480L896 480C913.68 480 928 494.32 928 512 928 529.68 913.68 544 896 544ZM896 224 128 224C110.32 224 96 209.68 96 192 96 174.32 110.32 160 128 160L896 160C913.68 160 928 174.32 928 192 928 209.68 913.68 224 896 224ZM128 800 896 800C913.68 800 928 814.32 928 832 928 849.68 913.68 864 896 864L128 864C110.32 864 96 849.68 96 832 96 814.32 110.32 800 128 800Z" p-id="2786"></path></svg>