<?xml version="1.0" standalone="no"?><!DOCTYPE svg PUBLIC "-//W3C//DTD SVG 1.1//EN" "http://www.w3.org/Graphics/SVG/1.1/DTD/svg11.dtd"><svg t="1617329818348" class="icon" viewBox="0 0 1024 1024" version="1.1" xmlns="http://www.w3.org/2000/svg" p-id="2142" xmlns:xlink="http://www.w3.org/1999/xlink" width="200" height="200"><defs><style type="text/css"></style></defs><path d="M512 1024a512 512 0 1 1 512-512 512 512 0 0 1-512 512zM512 64a448 448 0 1 0 448 448 448 448 0 0 0-448-448z" p-id="2143"></path><path d="M320 384m-64 0a64 64 0 1 0 128 0 64 64 0 1 0-128 0Z" p-id="2144"></path><path d="M704 384m-64 0a64 64 0 1 0 128 0 64 64 0 1 0-128 0Z" p-id="2145"></path><path d="M512 832a288 288 0 0 1-279.04-215.68 32 32 0 0 1 64-16 224 224 0 0 0 433.92 0 32 32 0 1 1 64 16A288 288 0 0 1 512 832z" p-id="2146"></path></svg>