<?xml version="1.0" encoding="UTF-8"?>
<svg width="100px" height="100px" viewBox="0 0 100 100" version="1.1" xmlns="http://www.w3.org/2000/svg" xmlns:xlink="http://www.w3.org/1999/xlink">
    <!-- Generator: Sketch 61 (89581) - https://sketch.com -->
    <title>Icon_512x512-13@1x</title>
    <desc>Created with Sketch.</desc>
    <g id="Icon_512x512-13" stroke="none" stroke-width="1" fill="none" fill-rule="evenodd">
        <g id="编组" transform="translate(50.000000, 50.000000) rotate(-45.000000) translate(-50.000000, -50.000000) translate(10.937500, 28.125000)">
            <path d="M43.75,39.0625 C43.75,41.6513348 41.6513348,43.75 39.0625,43.75 L39.0625,43.75 L4.6875,43.75 C2.09866524,43.75 0,41.6513348 0,39.0625 C0,36.4736652 2.09866524,34.375 4.6875,34.375 L4.6875,34.375 L34.375,34.375 L34.375,4.6875 C34.375,2.09866524 36.4736652,4.75561231e-16 39.0625,0 L73.4375,0 L73.4375,0 C76.0263348,-4.75561231e-16 78.125,2.09866524 78.125,4.6875 L78.125,39.0625 C78.125,41.6513348 76.0263348,43.75 73.4375,43.75 C70.8486652,43.75 68.75,41.6513348 68.75,39.0625 L68.75,9.375 L43.75,9.375 Z" id="形状结合" fill="#1890FF"></path>
            <path d="M17.1875,0 C19.7763348,4.75561231e-16 21.875,2.09866524 21.875,4.6875 C21.875,7.27633476 19.7763348,9.375 17.1875,9.375 L17.1875,9.375 L9.375,9.375 L9.375,17.1875 C9.375,19.7763348 7.27633476,21.875 4.6875,21.875 C2.09866524,21.875 3.17040821e-16,19.7763348 0,17.1875 L0,4.6875 C-3.17040821e-16,2.09866524 2.09866524,4.75561231e-16 4.6875,0 Z" id="形状结合" fill="#FF4D4F"></path>
        </g>
    </g>
</svg>