<?xml version="1.0" standalone="no"?><!DOCTYPE svg PUBLIC "-//W3C//DTD SVG 1.1//EN" "http://www.w3.org/Graphics/SVG/1.1/DTD/svg11.dtd"><svg t="1613281841959" class="icon" viewBox="0 0 1024 1024" version="1.1" xmlns="http://www.w3.org/2000/svg" p-id="8039" xmlns:xlink="http://www.w3.org/1999/xlink" width="500" height="500"><defs><style type="text/css"></style></defs><path d="M959.825 384.002V191.94c0-70.692-57.308-128-128-128H191.94c-70.692 0-128 57.308-128 128v639.885c0 70.692 57.308 128 128 128h639.885c70.692 0 128-57.308 128-128V384.002z m-813.16-237.337a63.738 63.738 0 0 1 45.336-18.785H832a63.962 63.962 0 0 1 63.886 64.121v128.061H127.88v-128.06a63.738 63.738 0 0 1 18.785-45.337z m269.127 461.308v-223.97h192.181v223.97H415.792z m192.181 63.94v223.972H415.792V671.914h192.181z m-256.121-63.94H127.88v-223.97h223.972v223.97zM146.665 877.21a63.467 63.467 0 0 1-18.785-45.21V671.914h223.972v223.97h-159.85a63.626 63.626 0 0 1-45.337-18.675z m749.22-45.21a63.763 63.763 0 0 1-63.886 63.886H671.914V671.914h223.97v160.085z m0-224.026H671.914v-223.97h223.97v223.97z" p-id="8040"></path></svg>