<?xml version="1.0" standalone="no"?><!DOCTYPE svg PUBLIC "-//W3C//DTD SVG 1.1//EN" "http://www.w3.org/Graphics/SVG/1.1/DTD/svg11.dtd"><svg t="1618994467784" class="icon" viewBox="0 0 1024 1024" version="1.1" xmlns="http://www.w3.org/2000/svg" p-id="3238" xmlns:xlink="http://www.w3.org/1999/xlink" width="200" height="200"><defs><style type="text/css"></style></defs><path d="M588.277761 410.368006l-76.27776 108.933119-76.277759-108.933119a28.44672 28.44672 0 0 0-46.602239 32.60416l88.166399 125.951999-88.166399 125.951998a28.44672 28.44672 0 1 0 46.612479 32.6144L512.000001 618.496004l76.27776 108.933119a28.44672 28.44672 0 1 0 46.602239-32.62464l-88.166399-125.951998 88.166399-125.951999a28.44672 28.44672 0 1 0-46.612479-32.6144z" p-id="3239"></path><path d="M879.615998 245.145608a28.416 28.416 0 0 0-6.144-9.28768L645.92896 8.36609A28.81536 28.81536 0 0 0 625.77664 0.00001H170.670085A28.42624 28.42624 0 0 0 142.223365 28.44673v967.10655A28.42624 28.42624 0 0 0 170.670085 1024h682.659833a28.42624 28.42624 0 0 0 28.44672-28.44672V256.000008a28.43648 28.43648 0 0 0-2.16064-10.8544zM654.22336 97.116169l130.447359 130.437119H654.22336z m170.670078 869.990392H199.106565V56.89345h398.223356V256.000008a28.42624 28.42624 0 0 0 28.446719 28.446719h199.116798z" p-id="3240"></path></svg>