<svg xmlns="http://www.w3.org/2000/svg" xmlns:xlink="http://www.w3.org/1999/xlink" viewBox="0 0 1024 1024" id="icon-chart">
  <path d="M271.872 603.136v158.208c0 14.336 11.264 25.6 25.6 25.6s25.6-11.264 25.6-25.6v-158.208c0-14.336-11.264-25.6-25.6-25.6s-25.6 11.264-25.6 25.6z m-37.376-153.088l209.408-145.92 124.416 135.68c2.048 2.048 4.096 3.584 6.656 5.12h18.944c2.56-1.024 5.12-2.048 7.68-3.584l219.648-153.6c12.8-8.704 15.872-26.112 7.168-38.4-8.704-12.8-26.112-15.872-38.912-7.168l-204.8 141.824-115.712-134.656c-9.216-9.728-24.576-11.264-35.84-3.584-2.56 0.512-5.12 1.536-7.168 3.072l-223.232 153.6c-12.8 8.704-15.872 26.112-7.168 38.4s26.112 15.872 38.4 7.168v2.048z m190.464 45.568v265.728c0 14.336 11.264 25.6 25.6 25.6s25.6-11.264 25.6-25.6v-265.728c0-14.336-11.264-25.6-25.6-25.6s-25.6 11.264-25.6 25.6z m304.128 0v265.728c0 14.336 11.264 25.6 25.6 25.6s25.6-11.264 25.6-25.6v-265.728c0-14.336-11.264-25.6-25.6-25.6s-25.6 11.264-25.6 25.6z m-151.552 107.52v158.208c0 14.336 11.264 25.6 25.6 25.6s25.6-11.264 25.6-25.6v-158.208c0-14.336-11.264-25.6-25.6-25.6s-25.6 11.264-25.6 25.6z" p-id="3286"></path>
  <path d="M880.128 835.072H271.36c-56.32 0-102.4-46.08-102.4-102.4V162.816c0-14.336-11.264-25.6-25.6-25.6s-25.6 11.264-25.6 25.6v569.856c0 84.992 68.608 153.6 153.6 153.6h608.768c14.336 0 25.6-11.264 25.6-25.6 0-13.824-11.264-25.6-25.6-25.6z" p-id="3287"></path>
</svg>