<?xml version="1.0" standalone="no"?>
<!DOCTYPE svg PUBLIC "-//W3C//DTD SVG 1.1//EN" "http://www.w3.org/Graphics/SVG/1.1/DTD/svg11.dtd"><svg t="1613282883848" class="icon" viewBox="0 0 1024 1024" version="1.1" xmlns="http://www.w3.org/2000/svg" p-id="15087" xmlns:xlink="http://www.w3.org/1999/xlink" width="500" height="500">
  <defs>
    <style type="text/css"></style>
  </defs>
  <path d="M256 402.285714l512 0 0 73.142857-512 0 0-73.142857Z" p-id="15088"></path>
  <path d="M256 548.571429l512 0 0 73.142857-512 0 0-73.142857Z" p-id="15089"></path>
  <path d="M256 694.857143l512 0 0 73.142857-512 0 0-73.142857Z" p-id="15090"></path>
  <path d="M914.285714 73.142857l-146.285714 0L768 36.571429l-109.714286 0 0 36.571429L365.714286 73.142857 365.714286 36.571429l-109.714286 0 0 36.571429L109.714286 73.142857c-20.214857 0-36.571429 16.356571-36.571429 36.571429l0 841.142857c0 20.214857 16.356571 36.571429 36.571429 36.571429l804.571429 0c20.214857 0 36.571429-16.356571 36.571429-36.571429L950.857143 109.714286C950.857143 89.499429 934.500571 73.142857 914.285714 73.142857zM256 146.285714l0 36.571429 109.714286 0L365.714286 146.285714l292.571429 0 0 36.571429 109.714286 0L768 146.285714l109.714286 0 0 109.714286L146.285714 256 146.285714 146.285714 256 146.285714zM146.285714 914.285714 146.285714 292.571429l731.428571 0 0 621.714286L146.285714 914.285714z" p-id="15091"></path>
</svg>