<svg t="1600849885313" viewBox="0 0 1024 1024" version="1.1" xmlns="http://www.w3.org/2000/svg" p-id="7813" width="64" height="64">
  <path d="M784.992 230.016V180q0-14.016 8.992-23.008t22.496-8.992 22.496 8.992 10.016 23.008v148.992q-0.992 12.992-10.016 22.016t-22.016 10.016h-148.992q-14.016-0.992-23.008-10.016t-8.992-22.496 8.992-22.496 23.008-8.992h92.992q-78.016-82.016-183.488-99.488t-204.512 34.496q-98.016 54.016-140.992 152t-16.992 208q28.992 108 113.504 173.504t196.512 67.488q136-3.008 226.016-93.504t94.016-226.496h64q-4 163.008-112.512 271.488t-271.488 112.512q-163.008-4-271.488-112.512t-112.512-271.488q0.992-116 62.016-210.016t167.008-140.992q107.008-46.016 217.504-27.488t197.504 95.488z" p-id="7814" fill="currentColor"></path>
</svg>